REM DIRINDEX 1\4,1\2\5,1\2\6,1\3\7,1\3\8
REM DIRNAME folder01,folder02,folder03,folder04,folder05,folder06,folder07,folder08
TITLE ""
FILE "099_Day50_Check2_Phrases.mp3" MP3
  TRACK 01 AUDIO
    TITLE "0:"
    INDEX 01 00:00:00
  TRACK 02 AUDIO
    TITLE "4:cjc124_3237"
    INDEX 01 00:00:33
  TRACK 03 AUDIO
    TITLE "0:"
    INDEX 01 00:01:56
  TRACK 04 AUDIO
    TITLE "5:cjc124_3238"
    INDEX 01 00:02:22
  TRACK 05 AUDIO
    TITLE "0:"
    INDEX 01 00:04:03
  TRACK 06 AUDIO
    TITLE "6:cjc124_3239"
    INDEX 01 00:04:17
  TRACK 07 AUDIO
    TITLE "0:"
    INDEX 01 00:05:50
  TRACK 08 AUDIO
    TITLE "5:cjc124_3240"
    INDEX 01 00:06:14
  TRACK 09 AUDIO
    TITLE "0:"
    INDEX 01 00:08:26
  TRACK 10 AUDIO
    TITLE "6:cjc124_3241"
    INDEX 01 00:08:42
  TRACK 11 AUDIO
    TITLE "0:"
    INDEX 01 00:10:72
  TRACK 12 AUDIO
    TITLE "5:cjc124_3242"
    INDEX 01 00:11:35
  TRACK 13 AUDIO
    TITLE "0:"
    INDEX 01 00:13:35
  TRACK 14 AUDIO
    TITLE "6:cjc124_3243"
    INDEX 01 00:13:49
  TRACK 15 AUDIO
    TITLE "0:"
    INDEX 01 00:15:72
  TRACK 16 AUDIO
    TITLE "5:cjc124_3244"
    INDEX 01 00:16:34
  TRACK 17 AUDIO
    TITLE "0:"
    INDEX 01 00:18:23
  TRACK 18 AUDIO
    TITLE "6:cjc124_3245"
    INDEX 01 00:18:41
  TRACK 19 AUDIO
    TITLE "0:"
    INDEX 01 00:20:08
  TRACK 20 AUDIO
    TITLE "5:cjc124_3246"
    INDEX 01 00:20:43
  TRACK 21 AUDIO
    TITLE "0:"
    INDEX 01 00:22:15
  TRACK 22 AUDIO
    TITLE "6:cjc124_3247"
    INDEX 01 00:22:36
  TRACK 23 AUDIO
    TITLE "0:"
    INDEX 01 00:23:44
  TRACK 24 AUDIO
    TITLE "5:cjc124_3248"
    INDEX 01 00:24:08
  TRACK 25 AUDIO
    TITLE "0:"
    INDEX 01 00:25:56
  TRACK 26 AUDIO
    TITLE "6:cjc124_3249"
    INDEX 01 00:25:72
  TRACK 27 AUDIO
    TITLE "0:"
    INDEX 01 00:27:51
  TRACK 28 AUDIO
    TITLE "5:cjc124_3250"
    INDEX 01 00:28:15
  TRACK 29 AUDIO
    TITLE "0:"
    INDEX 01 00:29:74
  TRACK 30 AUDIO
    TITLE "6:cjc124_3251"
    INDEX 01 00:30:12
  TRACK 31 AUDIO
    TITLE "0:"
    INDEX 01 00:31:39
  TRACK 32 AUDIO
    TITLE "5:cjc124_3252"
    INDEX 01 00:32:00
  TRACK 33 AUDIO
    TITLE "0:"
    INDEX 01 00:34:00
  TRACK 34 AUDIO
    TITLE "6:cjc124_3253"
    INDEX 01 00:34:14
  TRACK 35 AUDIO
    TITLE "0:"
    INDEX 01 00:36:50
  TRACK 36 AUDIO
    TITLE "5:cjc124_3254"
    INDEX 01 00:37:10
  TRACK 37 AUDIO
    TITLE "0:"
    INDEX 01 00:39:03
  TRACK 38 AUDIO
    TITLE "6:cjc124_3255"
    INDEX 01 00:39:17
  TRACK 39 AUDIO
    TITLE "0:"
    INDEX 01 00:40:68
  TRACK 40 AUDIO
    TITLE "5:cjc124_3256"
    INDEX 01 00:41:32
  TRACK 41 AUDIO
    TITLE "0:"
    INDEX 01 00:42:74
  TRACK 42 AUDIO
    TITLE "6:cjc124_3257"
    INDEX 01 00:43:33
  TRACK 43 AUDIO
    TITLE "0:"
    INDEX 01 00:45:06
  TRACK 44 AUDIO
    TITLE "5:cjc124_3258"
    INDEX 01 00:45:45
  TRACK 45 AUDIO
    TITLE "0:"
    INDEX 01 00:47:15
  TRACK 46 AUDIO
    TITLE "6:cjc124_3259"
    INDEX 01 00:47:32
  TRACK 47 AUDIO
    TITLE "0:"
    INDEX 01 00:48:59
  TRACK 48 AUDIO
    TITLE "5:cjc124_3260"
    INDEX 01 00:49:27
  TRACK 49 AUDIO
    TITLE "0:"
    INDEX 01 00:51:26
  TRACK 50 AUDIO
    TITLE "6:cjc124_3261"
    INDEX 01 00:51:40
  TRACK 51 AUDIO
    TITLE "0:"
    INDEX 01 00:53:02
  TRACK 52 AUDIO
    TITLE "5:cjc124_3262"
    INDEX 01 00:53:41
  TRACK 53 AUDIO
    TITLE "0:"
    INDEX 01 00:54:74
  TRACK 54 AUDIO
    TITLE "6:cjc124_3263"
    INDEX 01 00:55:24
  TRACK 55 AUDIO
    TITLE "0:"
    INDEX 01 00:56:53
  TRACK 56 AUDIO
    TITLE "5:cjc124_3264"
    INDEX 01 00:57:23
  TRACK 57 AUDIO
    TITLE "0:"
    INDEX 01 00:59:32
  TRACK 58 AUDIO
    TITLE "6:cjc124_3265"
    INDEX 01 00:59:47
  TRACK 59 AUDIO
    TITLE "0:"
    INDEX 01 01:01:27
  TRACK 60 AUDIO
    TITLE "5:cjc124_3266"
    INDEX 01 01:01:64
  TRACK 61 AUDIO
    TITLE "0:"
    INDEX 01 01:03:41
  TRACK 62 AUDIO
    TITLE "6:cjc124_3267"
    INDEX 01 01:03:61
  TRACK 63 AUDIO
    TITLE "0:"
    INDEX 01 01:05:60
  TRACK 64 AUDIO
    TITLE "5:cjc124_3268"
    INDEX 01 01:06:22
  TRACK 65 AUDIO
    TITLE "0:"
    INDEX 01 01:07:63
  TRACK 66 AUDIO
    TITLE "6:cjc124_3269"
    INDEX 01 01:08:03
  TRACK 67 AUDIO
    TITLE "0:"
    INDEX 01 01:09:50
